<mxfile host="app.diagrams.net" modified="2022-07-29T04:18:19.998Z" agent="5.0 (Windows NT 10.0; Win64; x64) AppleWebKit/537.36 (KHTML, like Gecko) Chrome/103.0.0.0 Safari/537.36" etag="zRqhv0hsF1VjZeTqyXFz" version="20.2.2" type="github">
  <diagram id="SF1TYB0Ha5Lxseoj5ab4" name="Page-1">
    <mxGraphModel dx="965" dy="1424" grid="1" gridSize="10" guides="1" tooltips="1" connect="1" arrows="1" fold="1" page="1" pageScale="1" pageWidth="1169" pageHeight="827" math="0" shadow="0">
      <root>
        <mxCell id="0" />
        <mxCell id="1" parent="0" />
        <mxCell id="wMdmDeeaGHVgdiBrAZcu-1" value="" style="shape=image;verticalLabelPosition=bottom;labelBackgroundColor=default;verticalAlign=top;aspect=fixed;imageAspect=0;image=https://thuathienhue.gov.vn/Portals/0/2021-HUY/20210618-2.png;" vertex="1" parent="1">
          <mxGeometry x="100" y="-470" width="520" height="380" as="geometry" />
        </mxCell>
        <mxCell id="wMdmDeeaGHVgdiBrAZcu-2" value="Lớp điện toán và lưu trữ" style="rounded=0;whiteSpace=wrap;html=1;" vertex="1" parent="1">
          <mxGeometry x="130" y="390" width="520" height="30" as="geometry" />
        </mxCell>
        <mxCell id="wMdmDeeaGHVgdiBrAZcu-3" value="Lớp mạng kết nối" style="rounded=0;whiteSpace=wrap;html=1;" vertex="1" parent="1">
          <mxGeometry x="130" y="440" width="520" height="30" as="geometry" />
        </mxCell>
        <mxCell id="wMdmDeeaGHVgdiBrAZcu-4" value="Lớp thu thập dữ liệu" style="rounded=0;whiteSpace=wrap;html=1;" vertex="1" parent="1">
          <mxGeometry x="130" y="490" width="520" height="30" as="geometry" />
        </mxCell>
        <mxCell id="wMdmDeeaGHVgdiBrAZcu-5" value="" style="rounded=0;whiteSpace=wrap;html=1;direction=south;" vertex="1" parent="1">
          <mxGeometry x="665" width="30" height="520" as="geometry" />
        </mxCell>
        <mxCell id="wMdmDeeaGHVgdiBrAZcu-6" value="" style="rounded=0;whiteSpace=wrap;html=1;direction=south;" vertex="1" parent="1">
          <mxGeometry x="705" width="30" height="520" as="geometry" />
        </mxCell>
        <mxCell id="wMdmDeeaGHVgdiBrAZcu-7" value="" style="rounded=0;whiteSpace=wrap;html=1;direction=south;" vertex="1" parent="1">
          <mxGeometry x="745" width="30" height="520" as="geometry" />
        </mxCell>
        <mxCell id="wMdmDeeaGHVgdiBrAZcu-8" value="" style="rounded=0;whiteSpace=wrap;html=1;direction=south;" vertex="1" parent="1">
          <mxGeometry x="785" width="30" height="520" as="geometry" />
        </mxCell>
        <mxCell id="wMdmDeeaGHVgdiBrAZcu-9" value="" style="rounded=0;whiteSpace=wrap;html=1;direction=south;" vertex="1" parent="1">
          <mxGeometry x="820" width="30" height="520" as="geometry" />
        </mxCell>
        <mxCell id="wMdmDeeaGHVgdiBrAZcu-10" value="Hệ thống định vị" style="text;html=1;strokeColor=none;fillColor=none;align=center;verticalAlign=middle;whiteSpace=wrap;rounded=0;rotation=90;" vertex="1" parent="1">
          <mxGeometry x="775" y="225" width="120" height="30" as="geometry" />
        </mxCell>
        <mxCell id="wMdmDeeaGHVgdiBrAZcu-11" value="Hệ thống định danh" style="text;html=1;strokeColor=none;fillColor=none;align=center;verticalAlign=middle;whiteSpace=wrap;rounded=0;rotation=90;" vertex="1" parent="1">
          <mxGeometry x="740" y="225" width="120" height="30" as="geometry" />
        </mxCell>
        <mxCell id="wMdmDeeaGHVgdiBrAZcu-12" value="Hệ thống bảo mật và bảo vệ quyền riêng tư" style="text;html=1;strokeColor=none;fillColor=none;align=center;verticalAlign=middle;whiteSpace=wrap;rounded=0;rotation=90;" vertex="1" parent="1">
          <mxGeometry x="540" y="255" width="280" height="30" as="geometry" />
        </mxCell>
        <mxCell id="wMdmDeeaGHVgdiBrAZcu-13" value="Hệ thống xây dựng" style="text;html=1;strokeColor=none;fillColor=none;align=center;verticalAlign=middle;whiteSpace=wrap;rounded=0;rotation=90;" vertex="1" parent="1">
          <mxGeometry x="620" y="225" width="200" height="30" as="geometry" />
        </mxCell>
        <mxCell id="wMdmDeeaGHVgdiBrAZcu-14" value="Hệ thống bảo trì và hoạt động" style="text;html=1;strokeColor=none;fillColor=none;align=center;verticalAlign=middle;whiteSpace=wrap;rounded=0;rotation=90;" vertex="1" parent="1">
          <mxGeometry x="660" y="210" width="200" height="30" as="geometry" />
        </mxCell>
        <mxCell id="wMdmDeeaGHVgdiBrAZcu-16" value="" style="rounded=0;whiteSpace=wrap;html=1;fillColor=#dae8fc;strokeColor=#6c8ebf;" vertex="1" parent="1">
          <mxGeometry x="120" y="160" width="530" height="220" as="geometry" />
        </mxCell>
        <mxCell id="wMdmDeeaGHVgdiBrAZcu-17" value="&lt;font style=&quot;font-size: 15px;&quot;&gt;Lớp hỗ trợ dữ liệu và dịch vụ&lt;/font&gt;" style="text;html=1;strokeColor=none;fillColor=none;align=center;verticalAlign=middle;whiteSpace=wrap;rounded=0;" vertex="1" parent="1">
          <mxGeometry x="140" y="165" width="50" height="210" as="geometry" />
        </mxCell>
        <mxCell id="wMdmDeeaGHVgdiBrAZcu-18" value="" style="rounded=0;whiteSpace=wrap;html=1;fillColor=#d5e8d4;strokeColor=#82b366;" vertex="1" parent="1">
          <mxGeometry x="210" y="167.5" width="420" height="60" as="geometry" />
        </mxCell>
        <mxCell id="wMdmDeeaGHVgdiBrAZcu-19" value="" style="rounded=0;whiteSpace=wrap;html=1;fillColor=#d5e8d4;strokeColor=#82b366;" vertex="1" parent="1">
          <mxGeometry x="210" y="240" width="420" height="60" as="geometry" />
        </mxCell>
        <mxCell id="wMdmDeeaGHVgdiBrAZcu-20" value="" style="rounded=0;whiteSpace=wrap;html=1;fillColor=#d5e8d4;strokeColor=#82b366;" vertex="1" parent="1">
          <mxGeometry x="210" y="312.5" width="420" height="60" as="geometry" />
        </mxCell>
        <mxCell id="wMdmDeeaGHVgdiBrAZcu-21" value="&lt;font style=&quot;font-size: 15px;&quot;&gt;Quản lý đô thị&lt;/font&gt;" style="rounded=1;whiteSpace=wrap;html=1;" vertex="1" parent="1">
          <mxGeometry x="220" y="177.5" width="180" height="40" as="geometry" />
        </mxCell>
        <mxCell id="wMdmDeeaGHVgdiBrAZcu-22" value="&lt;font style=&quot;font-size: 15px;&quot;&gt;Tài nguyên môi trường&lt;/font&gt;" style="rounded=1;whiteSpace=wrap;html=1;" vertex="1" parent="1">
          <mxGeometry x="220" y="322.5" width="180" height="40" as="geometry" />
        </mxCell>
        <mxCell id="wMdmDeeaGHVgdiBrAZcu-23" value="&lt;span style=&quot;color: rgb(0, 26, 51); font-family: &amp;quot;Segoe UI&amp;quot;, SegoeuiPc, &amp;quot;San Francisco&amp;quot;, &amp;quot;Helvetica Neue&amp;quot;, Helvetica, &amp;quot;Lucida Grande&amp;quot;, Roboto, Ubuntu, Tahoma, &amp;quot;Microsoft Sans Serif&amp;quot;, Arial, sans-serif; font-size: 15px; text-align: start; background-color: rgb(255, 255, 255);&quot;&gt;Giao thông thông minh&lt;/span&gt;" style="rounded=1;whiteSpace=wrap;html=1;" vertex="1" parent="1">
          <mxGeometry x="420" y="250" width="200" height="40" as="geometry" />
        </mxCell>
        <mxCell id="wMdmDeeaGHVgdiBrAZcu-24" value="&lt;font style=&quot;font-size: 15px;&quot;&gt;Du lich thông minh&lt;/font&gt;" style="rounded=1;whiteSpace=wrap;html=1;" vertex="1" parent="1">
          <mxGeometry x="420" y="177.5" width="200" height="40" as="geometry" />
        </mxCell>
        <mxCell id="wMdmDeeaGHVgdiBrAZcu-25" value="&lt;div style=&quot;text-align: start;&quot;&gt;&lt;span style=&quot;background-color: initial; font-size: 15px;&quot;&gt;&lt;font face=&quot;Segoe UI, SegoeuiPc, San Francisco, Helvetica Neue, Helvetica, Lucida Grande, Roboto, Ubuntu, Tahoma, Microsoft Sans Serif, Arial, sans-serif&quot; color=&quot;#001a33&quot;&gt;Năng lượng thông minh&lt;/font&gt;&lt;/span&gt;&lt;/div&gt;" style="rounded=1;whiteSpace=wrap;html=1;" vertex="1" parent="1">
          <mxGeometry x="420" y="322.5" width="200" height="40" as="geometry" />
        </mxCell>
        <mxCell id="wMdmDeeaGHVgdiBrAZcu-26" value="&lt;span style=&quot;font-size: 15px;&quot;&gt;ANTT-An ninh trật tự&lt;/span&gt;" style="rounded=1;whiteSpace=wrap;html=1;" vertex="1" parent="1">
          <mxGeometry x="220" y="250" width="180" height="40" as="geometry" />
        </mxCell>
      </root>
    </mxGraphModel>
  </diagram>
</mxfile>
